<svg xmlns="http://www.w3.org/2000/svg" viewBox="0 0 24 25"><path d="M20.6051 8.82396C20.4077 8.0342 19.7824 7.40897 19.0256 7.21153C17.6106 6.81665 12.0165 6.81665 12.0165 6.81665C12.0165 6.81665 6.3894 6.81665 4.97441 7.21153C4.21755 7.40897 3.59232 8.0342 3.39488 8.82396C3 10.206 3 13.1677 3 13.1677C3 13.1677 3 16.0964 3.39488 17.5113C3.59232 18.3011 4.21755 18.8934 4.97441 19.0909C6.3894 19.4528 12.0165 19.4528 12.0165 19.4528C12.0165 19.4528 17.6106 19.4528 19.0256 19.0909C19.7824 18.8934 20.4077 18.3011 20.6051 17.5113C21 16.0964 21 13.1677 21 13.1677C21 13.1677 21 10.206 20.6051 8.82396ZM10.1737 15.8331V10.5022L14.8464 13.1677L10.1737 15.8331Z" fill="currentColor"/></svg>
