<svg xmlns="http://www.w3.org/2000/svg" viewBox="0 0 24 25"><path d="M12.0179 8.69165C9.73214 8.69165 7.91071 10.5488 7.91071 12.7988C7.91071 15.0845 9.73214 16.9059 12.0179 16.9059C14.2679 16.9059 16.125 15.0845 16.125 12.7988C16.125 10.5488 14.2679 8.69165 12.0179 8.69165ZM12.0179 15.4774C10.5536 15.4774 9.33929 14.2988 9.33929 12.7988C9.33929 11.3345 10.5179 10.1559 12.0179 10.1559C13.4821 10.1559 14.6607 11.3345 14.6607 12.7988C14.6607 14.2988 13.4821 15.4774 12.0179 15.4774ZM17.2321 8.54879C17.2321 9.08451 16.8036 9.51308 16.2679 9.51308C15.7321 9.51308 15.3036 9.08451 15.3036 8.54879C15.3036 8.01308 15.7321 7.58451 16.2679 7.58451C16.8036 7.58451 17.2321 8.01308 17.2321 8.54879ZM19.9464 9.51308C19.875 8.22736 19.5893 7.08451 18.6607 6.15594C17.7321 5.22736 16.5893 4.94165 15.3036 4.87022C13.9821 4.79879 10.0179 4.79879 8.69643 4.87022C7.41071 4.94165 6.30357 5.22736 5.33929 6.15594C4.41071 7.08451 4.125 8.22736 4.05357 9.51308C3.98214 10.8345 3.98214 14.7988 4.05357 16.1202C4.125 17.4059 4.41071 18.5131 5.33929 19.4774C6.30357 20.4059 7.41071 20.6917 8.69643 20.7631C10.0179 20.8345 13.9821 20.8345 15.3036 20.7631C16.5893 20.6917 17.7321 20.4059 18.6607 19.4774C19.5893 18.5131 19.875 17.4059 19.9464 16.1202C20.0179 14.7988 20.0179 10.8345 19.9464 9.51308ZM18.2321 17.5131C17.9821 18.2274 17.4107 18.7631 16.7321 19.0488C15.6607 19.4774 13.1607 19.3702 12.0179 19.3702C10.8393 19.3702 8.33929 19.4774 7.30357 19.0488C6.58929 18.7631 6.05357 18.2274 5.76786 17.5131C5.33929 16.4774 5.44643 13.9774 5.44643 12.7988C5.44643 11.6559 5.33929 9.15594 5.76786 8.08451C6.05357 7.40594 6.58929 6.87022 7.30357 6.58451C8.33929 6.15594 10.8393 6.26308 12.0179 6.26308C13.1607 6.26308 15.6607 6.15594 16.7321 6.58451C17.4107 6.83451 17.9464 7.40594 18.2321 8.08451C18.6607 9.15594 18.5536 11.6559 18.5536 12.7988C18.5536 13.9774 18.6607 16.4774 18.2321 17.5131Z"/></svg>