<svg xmlns="http://www.w3.org/2000/svg" viewBox="0 0 24 24"><path fill-rule="evenodd" d="M7 4C5.34315 4 4 5.34315 4 7V17C4 18.6569 5.34315 20 7 20H17C18.6569 20 20 18.6569 20 17V7C20 5.34315 18.6569 4 17 4H7ZM11.2876 13.2846L7.88406 17.2403C7.88294 17.2416 7.88155 17.2426 7.87998 17.2433C7.87842 17.244 7.87673 17.2443 7.87502 17.2442H7.02332C7.02108 17.2443 7.01887 17.2437 7.01695 17.2425C7.01504 17.2414 7.01351 17.2396 7.01255 17.2376C7.0116 17.2356 7.01125 17.2333 7.01156 17.2311C7.01187 17.2289 7.01282 17.2268 7.01429 17.2251L10.8992 12.7075C10.9008 12.7056 10.9018 12.7031 10.9019 12.7006C10.902 12.698 10.9013 12.6955 10.8999 12.6934L7.002 7.01807C7.00081 7.01632 7.00012 7.01427 7.00002 7.01216C6.99991 7.01004 7.00038 7.00794 7.00139 7.00607C7.0024 7.00421 7.00389 7.00265 7.00572 7.00158C7.00755 7.00051 7.00964 6.99997 7.01176 7H9.9694C9.97132 6.99997 9.97321 7.00042 9.97492 7.0013C9.97662 7.00218 9.97808 7.00348 9.97916 7.00506L12.5556 10.7566C12.5566 10.7581 12.5579 10.7593 12.5594 10.7602C12.561 10.7611 12.5627 10.7616 12.5645 10.7617C12.5663 10.7618 12.5681 10.7615 12.5697 10.7608C12.5714 10.7601 12.5728 10.759 12.574 10.7577L15.8045 7.00398C15.8056 7.00269 15.807 7.00167 15.8085 7.00098C15.8101 7.00029 15.8118 6.99996 15.8135 7H16.6648C16.6671 6.99994 16.6693 7.00054 16.6712 7.00171C16.6731 7.00289 16.6746 7.0046 16.6756 7.00663C16.6766 7.00866 16.6769 7.01093 16.6766 7.01315C16.6763 7.01538 16.6753 7.01746 16.6739 7.01916L12.9632 11.334C12.9615 11.336 12.9605 11.3384 12.9604 11.3409C12.9603 11.3435 12.961 11.346 12.9625 11.3481L16.998 17.2262C16.9992 17.2279 16.9999 17.23 17 17.2321C17.0001 17.2342 16.9996 17.2363 16.9986 17.2382C16.9976 17.24 16.9961 17.2416 16.9943 17.2427C16.9924 17.2437 16.9904 17.2443 16.9882 17.2442H14.0331C14.0312 17.2443 14.0293 17.2438 14.0276 17.2429C14.0259 17.2421 14.0245 17.2408 14.0234 17.2392L11.306 13.2857C11.305 13.2842 11.3037 13.2829 11.3022 13.282C11.3006 13.2812 11.2989 13.2806 11.2971 13.2805C11.2953 13.2804 11.2935 13.2807 11.2919 13.2814C11.2902 13.2821 11.2888 13.2832 11.2876 13.2846ZM8.21409 7.65759L8.21275 7.65767C8.21084 7.65788 8.20899 7.65852 8.20734 7.65953C8.20531 7.66079 8.20367 7.66258 8.20259 7.6647C8.2015 7.66683 8.20103 7.66921 8.20121 7.67159C8.20139 7.67397 8.20222 7.67625 8.20361 7.67819L14.4466 16.6154C14.4479 16.6171 14.4495 16.6185 14.4514 16.6195C14.4533 16.6204 14.4554 16.6209 14.4575 16.6209H15.7847C15.7871 16.6208 15.7894 16.6202 15.7915 16.6189C15.7935 16.6177 15.7951 16.6159 15.7962 16.6137C15.7973 16.6116 15.7978 16.6092 15.7976 16.6069C15.7974 16.6045 15.7966 16.6022 15.7952 16.6003L9.55506 7.66916C9.55383 7.66744 9.5522 7.66605 9.55031 7.66511C9.54842 7.66416 9.54633 7.66369 9.54422 7.66374L8.21409 7.65759Z"/></svg>